<?xml version="1.0" encoding="utf-8"?>
<!-- Generator: Adobe Illustrator 22.0.0, SVG Export Plug-In . SVG Version: 6.00 Build 0)  -->
<svg version="1.1" id="Capa_1" xmlns="http://www.w3.org/2000/svg" xmlns:xlink="http://www.w3.org/1999/xlink" x="0px" y="0px"
	 viewBox="0 0 309.4 560" style="enable-background:new 0 0 309.4 560;" xml:space="preserve">
<style type="text/css">
	.st0{clip-path:url(#SVGID_2_);}
	.st1{fill:#FFFFFF;}
</style>
<g>
	<defs>
		<circle id="SVGID_1_" cx="152" cy="215" r="181.5"/>
	</defs>
	<clipPath id="SVGID_2_">
		<use xlink:href="#SVGID_1_"  style="overflow:visible;"/>
	</clipPath>
	<g class="st0">
		<g>
			<path d="M308.4-31.6c0,93.8,0,187.7,0,281.5c-7.6,3.6-15.1,7.3-22.7,10.9c-3.9,1.9-7.8,3.8-11.7,5.6c-4.3,2.1-8.5,4.2-12.8,6.1
				c-5.4,2.5-11,4.7-16.4,7.2c-5.3,2.4-10.5,5-15.8,7.4c-4.9,2.2-9.9,4-14.7,6.3c-1.8,0.9-3.2,1.7-4.7-0.3c-0.7,0.8-1.3,1.5-2,2.3
				c1.7,0.7,1.8,1.3,0.4,2.6c-1.1,1.1-1.4,2.9-2,4.4c-0.5,1.3-0.4,2.9-1.1,3.9c-1.2,1.6-2.8,2.9-4.4,4.1c-0.8,0.7-1.7,1.1-1.5,2.5
				c0.1,0.7-0.5,1.5-0.9,2.2c-0.3,0.5-1,0.9-1.1,1.5c-0.9,2.8-1.6,3.4-4.5,3.8c-0.6,0.1-1.2,0.8-1.6,1.3c-1.7,1.8-2.8,4.3-5.3,5.1
				c-1.5,0.4-2.5,0.9-3.3,2.3c-0.5,0.8-1.7,1.3-2.7,1.8c-1.2,0.5-2.4,0.8-3.6,1.2c-0.5,0.2-1.1,0.7-1.5,0.6c-3.3-1.2-5.7,2.5-9,1.5
				c-0.1,0-0.3,0.2-0.5,0.3c-5.1,2-10.2,4.2-15.7,4.8c-3.1,0.3-6,1.9-9,2.7c-5.1,1.3-11.2,0-14.4-4.3c-2.1-2.8-4.4-5.6-6.8-8.1
				c-1.8-1.9-3.9-3.4-5.1-5.9c-0.5-1-1.8-1.7-2.6-2.6c-0.5-0.5-0.9-1.2-1.3-1.8c-0.6-0.9-0.9-2.1-1.6-2.8c-3.6-3.6-8-6.7-8.9-12.2
				c-0.1-0.9-0.3-1.8-0.1-2.6c0.6-2.3-0.4-6.2-2.4-7.6c2.5-3.7,1.7-7.1-1.2-10.1c0.1-0.5,0.3-0.9,0.2-1.4c-0.3-2.3-0.6-4.6-0.9-6.9
				c-0.3-2.8-1.4-5-3.4-7.1c-2.4-2.5-2.3-6.7-0.5-8.7c-1.2-2.5-2.4-5-3.6-7.4c0.2-0.1,0.4-0.2,0.5-0.4c0.5,0.3,1,0.6,1.6,0.8
				c0.4-1,0.6-2,1.1-2.8c0.9-1.1,2.1-2,3.3-3.2c0.4,0.4,0.9,1,1.5,1.6c0.4-0.4,0.7-0.6,1-0.9c0.7,1,1.3,1.8,1.9,2.7
				c-0.3,0.4-0.8,0.7-0.8,1.1c0,1.4,0.2,2.7,0.4,4c0.7-0.4,1.4-0.8,2.2-1.2c0.1,0.1,0.5,0.4,0.9,0.7c0.4-0.6,0.7-1,1.3-1.9
				c0,3,0,5.5,0,8.1c1-0.1,1.6-0.2,2.3-0.3c-0.1,0.9-0.3,1.7-0.4,2.6c0.6,0.2,1.1,0.3,1.8,0.5c-2.2,2.8,0.5,5.1,0.4,7.6
				c0,0.1,0.4,0.4,0.7,0.5c1.6,0.6,2.7,0.1,2.7-2.1c0.3,0.2,0.6,0.3,0.8,0.5c-0.3,2-0.7,4-1,6.1c0.8-0.1,1.3-0.2,1.7-0.3
				c0.1,0.7,0.3,1.3,0.4,1.8c0.7-0.1,1.1-0.2,1.8-0.3c-1.6,5.8,2.7,2.9,4.8,3.2c-0.5,1.1-0.8,1.9-1.4,3.2c1.4-0.4,2.1-0.7,2.8-0.8
				c0.5-0.1,1.1,0,1.6,0c-0.1,0.5-0.2,1-0.3,1.5c-0.3,1-0.6,1.9-0.9,2.6c3.4,1.4,6.4,2.6,9,3.7c0.3,1.4,0.6,2.4,0.9,3.5
				c0.2,0,0.4,0,0.6,0c0.2-0.6,0.5-1.2,0.6-1.8c0.4-1.7,1.1-3.1,2.9-3.6c1.9-0.5,2.1,1.3,2.9,2.2c1,1.2,1.9,1.3,2.5-0.2
				c0.5-1.2,1-1.7,2.4-1.9c1.6-0.1,3.2-0.8,4.6-1.4c0.9-0.4,1.6-1.3,2.4-1.9c-0.1-0.3-0.3-0.6-0.4-0.9c-2,0.3-4.1,0.5-6.2,0.8
				c0-0.1,0-0.5,0.1-1c0.4-2.8,0.3-2.9-2.5-3.3c-2.2-0.3-4.3-0.9-5.5-3.2c-0.9-1.8-1.8-3.7-2.9-5.4c-1.2-1.9-1.1-3.9,0.8-5.6
				c0.5,0.4,0.9,0.9,1.4,1.2c1.8,1.1,3.6,2.7,5.6,3c4.5,0.8,9.2,1,13.8,1.4c1.3,0.1,2.7,0.1,4,0c1.8-0.2,3.6-0.6,5.3-0.9
				c2.2-0.4,4.8-0.2,6.5-1.3c1.7-1.1,2.7-0.8,4.4-0.2c-1.7,4-4.5,6.8-8,8.9c-0.8,0.5-1.8,1-2.2,1.8c-0.6,1.4-1.5,2.1-3.1,2.1
				c-0.5,0-1.4,0.7-1.4,1.1c0,0.7,0.4,1.5,0.8,2.2c0.2,0.3,0.8,0.4,1.2,0.6c0.1,0.2,0.2,0.4,0.4,0.6c-2.5,0.1-4.1,0.9-4,3.6
				c-0.4-1.6-0.6-3.1-0.4-4.4c0.3-1.6-0.5-1.9-1.7-1.9c-2.4,0-2.8,2-3.7,3.7c1.3,0.1,2.3,0.1,3,0.2c0.2,1.8,0.3,3.4,0.5,5.1
				c-0.3-0.2-0.7-0.4-1.4-0.8c0.7,1.7-0.9,3.8,1.5,4.3c0.7,0.1,1.6-1,2.4-1.6c1-0.2,2.1-0.4,3.3-0.7c0.1,0.3,0.3,0.9,0.6,1.5
				c0.5-0.3,0.9-0.5,1.2-0.6c0.2,1.1,0.4,2.2,0.5,3.3c3.2-2.3,4.3-5.2,3.7-9c1.7,2.1,3.2,4,5.2,6.5c0.9-1.9,1.5-3.3,2.2-4.9
				c1.1-0.3,1.7,0.1,2,1.7c0.3,1.2,1.5,2.3,2.3,3.4c0.3-0.2,0.5-0.3,0.8-0.5c-0.2-0.6-0.5-1.3-0.7-1.9c-0.1-0.5,0-1,0-1.5
				c2,0.1,3.1-1.7,4.7-2.4c2.1-1,4.3-1.9,6.2-2.7c-0.1-1.6-0.1-2.7-0.2-4.2c1.3,1.2,2,2,2.8,2.7c0.4-2.2,0.7-4,1-5.8
				c1.4,0,3.5-2.2,5.3-5.3c1.2,0.2,2.3,0.7,3.2-1.1c1.1-2.3-1.4-2-1.9-3.5c1.2-0.5,2.7-0.7,3.4-1.5c0.7-0.9,0.6-2.4,0.7-3.2
				c1.2-0.5,2.1-0.9,3.1-1.3l0,0c1.9,0.7,0.8,2,0.5,3c-0.3,0.9-0.9,1.7-1.4,2.5c0.2,0.2,0.5,0.4,0.7,0.6c1.1-0.6,2.2-1.1,3.2-1.9
				c0.9-0.6,1.5-1.5,2.3-2.3c-0.7-0.4-1.4-0.8-2.3-1.3c1.1-0.5,2.1-1,3.1-1.5c1.9-0.9,2.2-2.6,0.8-4.2c-0.3-0.3-0.7-0.4-1.4-0.7
				c2.3-1.2,2.2-5.4,5.5-2.8c4.3-10.1,6.3-20.6,8.3-31.7c1,1,1.3,1.7,1.9,2c0.7,0.3,1.8,0.7,2.5,0.4c2.7-1.3,5.4-2.9,8-4.4
				c1.3-0.7,2.6-1.3,2.4-3.3c-0.2-1.4,0.4-2.9,0.7-4.4c0-0.1-0.2-0.2-0.3-0.2c-1.4-0.2-1.8,2.7-3.8,1.1c2.4-2.8,4.5-5.7,7-8.3
				c1.5-1.6,3.4-2.8,4.2-5.1c0.9-2.4,0.8-3.2-1.7-3.9c-2.5-0.7-5.1-1.2-7.6-1.7c-1.5-0.3-1.9-0.8-1-2.2c0.9-1.5,1.8-3.1,2.5-4.7
				c0.3-0.7,0.4-2,0-2.6c-2-2.4-1.4-5.1-1-7.7c0.5-2.9,1-5.9,1.2-8.8c0.2-1.8-2.2-4-4.1-4.1c-2.3-0.2-2,1.8-2.5,3.1
				c-1.3,3.7-2.2,7.5-3.9,11.1c-3,6.3-7.5,10.9-14.6,12.7c-9.1,2.3-18.2,2.6-27.3,0.3c-3.2-0.8-6.5-2.2-9.3-4.1
				c-4.7-3.1-6.9-8.1-9.4-13c-3-5.7-4.2-12.3-8.7-17.4c-1.4-1.6-3-2.5-5.2-2.5c-3.4,0.1-6.1,1.9-7.6,4.7c-1.5,2.8-2.3,5.9-3.3,9
				c-2.2,7.1-5.2,13.8-8.7,19.6c-1.6,0.3-2.7,0.4-3.7,0.8c-1.6,0.6-3,1.7-4.6,2.3c-9.1,3.5-18.5,4-28,2.7
				c-6.2-0.8-11.9-2.2-16.2-7.8c-3-4-5.2-8.1-6.6-12.8c-1.4-4.7-2.4-9.5-3.8-14.2c-0.5-1.6-1.5-3-2.3-4.5c-0.6-1.3-1.6-2.5-1.8-3.9
				c-0.3-2.5-0.1-5.1-0.2-7.7c0-1.7,0.8-2.4,2.4-2.7c1.5-0.3,3-0.6,4.2-0.9c-0.6-1.7-1.4-3.2-1.5-4.7c-0.1-3-0.6-3.4-3.5-2.1
				c0.8,1.2,1.5,2.4,2.3,3.6c-0.2,0.1-0.3,0.3-0.5,0.4c-0.5-0.1-1.1-0.4-1.6-0.4c-1.7-0.2-3-0.6-2.1-2.8c0.1-0.4-0.2-1.3-0.5-1.4
				c-2.4-1.2-1.4-3.2-1-4.9c0.1-0.5,1.7-0.8,2.5-1.1c0.3-0.1,0.6-0.2,0.9-0.4c-1-2.4-3.2-1.9-5-2.2c-1.1-0.2-1.4,0.6-1.2,1.7
				c0.3,1.2,0.6,2.4,0.7,3.6c0.1,1.6-0.9,2.1-2.4,1.6c-0.8-0.3-1.7-0.3-2.5-0.5c-0.6-0.2-1.2-0.4-1.6-0.8c-0.9-1-1.6-2.2-2.4-3.5
				c1-0.7,0.2-2-0.8-3.3c-0.3-0.4-0.4-1.1-0.5-1.6c-0.6-5.8-1.2-11.6-1.8-17.4c-0.7-7.5-1.4-15-2.2-22.5c0-0.3-0.3-0.5-0.5-0.7
				c-0.2,0.2-0.4,0.3-0.4,0.4c0.2,6,0.4,12.1,0.8,18.1c0.1,2.1,1.3,4.1,1.3,6.2c0.3,10.2,0.3,20.3,0.6,30.5c0.1,4.3,0.5,8.6,0.8,13
				c0,0.7-0.2,1.4-0.3,2.1c-0.3,0-0.5,0-0.8,0c-0.2-1-0.4-1.9-0.5-2.9c-0.4-3.6-0.4-7.3-1.1-10.8c-0.9-4.9-2.1-9.8-3.4-14.7
				c-0.4-1.5-1.8-2.8-3-4.7c-0.5,1.3-0.7,1.9-0.9,2.4c-2.7-0.5-1.7-2-1.1-3.2c-0.6-0.6-1.1-1.1-1.5-1.7c-1.4-2.1-3.1-3.3-5.8-2.4
				c-0.6,0.2-1.6-0.4-2.2-1c-0.3-0.3-0.1-1.6,0.1-1.7c0.7-0.2,1.6-0.1,3-0.1c-0.8-1.1-1.2-2.5-2-2.7c-1.2-0.4-2.6-0.1-3.2,1.7
				c-0.4,1.3-1.5,2.5-2.3,3.7c-0.3-0.2-0.5-0.2-0.6-0.3c-0.1-0.1-0.2-0.2-0.2-0.3c-0.4-2.6-1.7-4-4.4-3.8c-0.2,0-0.6-1.1-0.6-1.7
				c0.1-1.2,0.5-2.4,0.7-3.7c0-0.4-0.3-1-0.6-1.2c-0.3-0.1-0.9,0.2-1.2,0.5c-1.5,1.2-2.3,1.1-2.6-0.7c-0.6-3.1-0.9-6.2-1.5-9.2
				c-0.6-3.1-1.5-6.1-2.3-9.1c-0.2-0.7-0.7-1.3-1.1-1.9c-0.2,0.1-0.4,0.1-0.5,0.2c0.2,1.2,0.3,2.3,0.5,3.4
				c1.1,5.1,2.4,10.1,3.3,15.2c1.3,6.8,2.4,13.7,3.6,20.5c1,5.9,1.9,11.8,2.8,17.7c0.1,1-0.1,2.1-0.2,3.1c-0.2,0-0.4,0-0.6,0
				c-0.3-0.4-0.6-0.7-0.7-1.1c-1-3.9-2-7.7-2.9-11.6c-1.2-5.2-2.4-10.3-3.6-15.5c-0.9-3.7-1.6-7.4-2.6-11.1c-0.1-0.5-0.9-0.8-1.5-1
				c-0.6-0.2-1.3,0-1.9-0.2c-0.8-0.2-1.7-0.6-2.5-0.9c-0.6-0.2-1.1-0.5-1.6-0.8c-0.9-0.5-1.7-1.2-2.6-1.5c-3.2-1-3.2-1-3.2-4.3
				c0-41.3,0-82.7-0.1-124c0-2.2,0.6-2.7,2.7-2.7c31.3,0.1,62.6,0,93.9,0c62.9,0,125.7,0,188.6,0C293.3-31.4,300.9-31.5,308.4-31.6z
				 M170.9,175.4l-0.1,0.1c0.4,0.4,0.9,0.6,1.2,1.1c1,1.8,1.8,3.7,2.9,5.5c3.8,6.2,9.6,9.8,16.5,11.2c6.4,1.2,12.9,1.2,19.3-0.1
				c2.6-0.5,5.3-0.4,7.8-1.2c4.7-1.7,7.7-4.9,9.6-9.9c3.5-8.8,4.6-17.7,3.8-27c-0.5-5.5-3.2-9.6-8.8-10.8c-4.9-1.1-9.9-1.8-15-2.1
				c-5.7-0.3-11.4-0.1-17.1-0.1c0.8-0.3,1.6-0.3,2.3-0.4c3.7-0.5,7.8,0.2,10.9-2.7c0.3-0.3,1.1-0.3,1.7-0.3
				c6.8,0.3,13.6,0.5,20.5,0.8c2,0.1,3.9,0.3,5.6,0.5c-0.2-0.9-0.4-1.7-0.5-2.5c-0.2-3.7-0.3-7.4-0.4-11.1c0-1.2,0.1-2.4,0.2-3.6
				c0.1-1.5,0.4-3.1,0.4-4.6c0-6.7-2.4-12.8-4.6-19c-1.4-3.9-3-7.7-5.1-11.2c-2.5-4.1-5.6-7.9-8.7-11.6c-1.9-2.2-3.5-4.8-6.9-5.2
				c-1.2-0.2-2.3-1.7-3.4-2.7c-0.4-0.3-0.7-0.7-1.2-0.9c-2.1-0.6-4.3-1.2-6.4-1.8c-1.4-0.4-3.1-0.5-4.1-1.3c-3.3-2.5-7.1-3-10.9-3.7
				c-1.7-0.3-3.1-2.1-5.1-1.3c0,0-0.1-0.1-0.2-0.1c-1.4-0.4-2.8-0.7-4.2-1.1c-0.7-0.2-1.5-0.2-2.2-0.5c-1.4-0.6-2.7-2.4-4.5-0.7
				c-0.1,0.1-0.5,0-0.6-0.1c-0.9-0.9-1.6-0.5-2.4,0.1c-0.6,0.4-1.4,0.5-2.2,0.7c-4.5,1.4-9.2-0.1-13.8,1.5c-1.3,0.5-2.3,0.4-2.4,1.6
				c-1.5,0.1-3.8-0.2-4,0.4c-1.3,3-5.7,1.3-6.6,4.6c0,0.1-0.6,0.1-1,0.1c-0.8,0.2-1.5,0.3-2.3,0.5c-0.7,0.2-1.7,0.8-2.2,0.6
				c-1.9-1-3.4,0-5.1,0.4c-2,0.4-4.1,0.6-5.9,1.4c-1.8,0.8-3.3,2.3-4.9,3.6c-0.4,0.3-0.5,0.8-0.8,1.2c-0.3,0.5-0.6,1.2-1.1,1.5
				c-2.4,1.4-5,2.6-7.2,4.2c-2,1.5-3.7,3.5-5.3,5.4c-1.3,1.6-2.4,3.4-3.4,5.2C92,91.5,91.3,93,91,94.4c-0.5,2.8-0.8,5.7-1.1,8.6
				c-0.2,1.5-0.2,3-0.2,4.4c0.1,2.7,0.7,5.5-1.9,7.7c-0.6,0.5-0.7,1.5-1.1,2.3c-0.5,1-1.3,2-1.7,3c-0.3,0.8-0.5,1.7-0.4,2.6
				c0.2,1.3,0.7,2.6,1.1,4.1c0.3,0.1,1,0.2,2,0.4c-4.4,2.9-4.5,7.1-4.8,11.2c-0.1,0.8-0.5,1.5-0.8,2.4c0.9,0,1.8,0.1,2.6,0
				c12.6-1.6,25.3-1.2,38-0.4c0.8,0,1.6,0.5,2.3,0.9c1.7,0.9,3.3,2,5,2.7c2,0.8,4.1,1.1,6.2,1.7c-4.3-0.6-8.6-1.3-12.9-1.8
				c-10.5-1.3-20.9-1.3-31.3,0.7c-9,1.8-12.4,4.6-13,12.8c-0.4,5.7,0.4,11.6,1.3,17.4c0.5,3.4,1.7,6.8,3.2,9.8
				c1.2,2.4,3.1,5,5.3,6.1c9.4,4.5,19.5,4.7,29.7,3.5c7.5-0.9,13.5-4.3,17.8-10.5c5.5-8.1,7.6-17.2,7.5-26.9
				c-0.1-5-2.2-8.6-6.7-10.6c0.6,0.2,1.2,0.5,1.8,0.8c2.1,1,3.7,2.2,4.6,4.5c2.1,5.8,2,11.7,0.5,17.6c-0.2,0.8-0.2,1.7-0.3,2.5
				c0.2,0,0.4,0.1,0.5,0.1c1.4-3.7,2.8-7.4,4.1-11.1c0.4-1,0.9-2.2,0.7-3.2c-0.4-2.6-1.2-5.1-1.7-7.7c-1.1-5.8-1-5.8,4.9-5.4
				c1.7,0.1,2.6,1,2.8,2.6c0.1,1.4,0.1,2.9,0.4,4.2c0.2,0.8,0.8,1.4,1.2,2.2c0.4-0.8,1-1.5,1.1-2.4c0.3-1.2,0.2-2.6,0.3-3.8
				c0.2-1.8,1.1-2.9,3-2.9c0.7,0,1.4,0,2.1-0.1c1.7-0.3,2.2,0.5,1.9,2.1c-0.7,3.5-1.3,7-1.9,10.5c-0.1,0.6,0,1.4,0.2,2
				c1.2,3,2.4,5.9,3.7,8.8C168.1,170.2,169.5,172.8,170.9,175.4z M238.1,157.1c1.7-1.2,3.1-2.4,3.2-4.7c0-1.2,0.3-2.4,0.3-3.6
				c0.1-2.3,0-4.6,0-7C240.5,147.1,242.6,152.7,238.1,157.1z M236.3,151.6c0.5-0.7,1.1-1.2,1-1.5c-0.2-0.5-0.7-1-1.2-1.1
				c-0.2-0.1-1,0.7-1,0.9C235.2,150.3,235.7,150.8,236.3,151.6z"/>
			<path d="M308.4,343.2c0,61.7,0,123.5,0,185.2c-0.6,0-1.1-0.1-1.7-0.1c-35.3,0-70.6,0.1-105.9,0.1c-66,0-132,0-198-0.1
				c-0.7,0-1.5,0-2.3,0c0-1.1,0-1.8,0-2.5c0-19.5,0-38.9,0-58.4c0-18.1,0.1-36.2,0.1-54.3c0-0.9,0.1-2.4,0.5-2.5
				c1.7-0.6,1.9-2.1,2.7-3.3c1.1-1.8,0.7-4.6,3.3-5.5c0.2-0.1,0.3-0.8,0.3-1.2c0-1.1,0-2.2,0-2.9c0.8-0.6,1.6-0.9,1.9-1.5
				c0.7-1.7,1.1-3.6,1.8-5.3c0.7-1.8,1.6-3.5,2.4-5.3c0.5-1.3,0.6-3,1.5-3.8c1.8-1.7,0-2.3-0.5-3c0.9-0.7,1.7-1.2,2.3-1.9
				c0.9-1.1,1.7-2.4,2.6-3.6c0.6-0.9,1.4-1.6,1.9-2.6c1.2-2.2,2.2-4.5,3.3-6.8c0.1-0.2,0.5-0.4,0.6-0.6c0.9-2.3,1.8-4.5,2.6-6.8
				c0.4-1.1,0.8-2.1,1.2-3.2c0.2-0.5,0.5-1,0.7-1.5c1.6-3.7,1.9-7.7,3.2-11.5c1.1-3.3,3-5.1,5.9-6.1c2.1-0.7,3-2.2,3.2-4.1
				c0.3-3.1,0.6-6.2,0.5-9.4c-0.1-3.3-1.3-4.8-4.4-5.3c-1.1-0.2-2.7-1.2-3-2.1c-0.7-2-1.8-2.6-3.9-1.8c-0.3-1.6-0.8-3.1-0.7-4.5
				c0.2-2.6-0.9-4.3-2.6-6c-0.6-0.6-0.9-1.6-1.4-2.3c1-0.4,1.9-1.2,2.9-1.2c8.1,0.2,16.2,0.6,24.3,0.9c0.4,0,0.9-0.2,1.3-0.2
				c-2.5-0.6-5-1.1-7.5-1c-4.9,0.3-9.2-2.2-13.8-3.1c-1.5-0.3-1.9-1.5-1.5-3c0.4-1.6,2.8-3,5.2-2.8c1.2,0.1,2.1,0,2.5-1.3
				c0.4-1.2,0.7-2.4,2.5-1.7c0.2,0.1,0.8-0.5,0.8-0.8c0.2-1.8,1.6-2.1,3-2.2c1.9-0.2,2.8-1.1,3.2-2.8c0.2-0.6,1.1-1.4,1.7-1.5
				c2.2-0.2,4.2,0.3,6,1.6c3,2.3,3.9,2,4.8-1.6c0.2-0.7,0.7-1.6,1.2-1.8c0.5-0.2,1.3,0.4,1.9,0.9c0.5,0.4,0.9,0.9,1.2,1.5
				c1.7,3.1,2.9,3.4,5.6,1.1c2.6-2.1,4.8-2.2,5.7,0c1,2.4,2.8,3.4,5,4.2c0.7,0.3,1.4,1.1,1.7,1.8c0.6,1.3,4.4,4.1,5.9,4
				c0.5-0.1,1.1-0.4,1.5-0.7c0.6-0.6,1.2-1.4,2.1-2.5c0.7,0.8,1.8,1.5,1.8,2.3c0.2,2.2,1.2,4.2,0.2,6.6c-0.8,2-1.7,3-3.9,3
				c-7-0.2-14.1-0.3-21.1-0.4c-0.8,0-1.5,0.1-2.3,0.2c1.9,0.8,3.7,1.5,5.6,1.6c3.8,0.1,7.6-0.1,11.4-0.1c2.6,0,5.2,0.3,7.8,0.4
				c1.2,0.1,1.6,0.7,1.2,1.7c-0.9,2.5-0.5,5.6-3.1,7.4c-0.3,0.2-0.2,0.8-0.4,1.2c-0.3,0.6-0.6,1.3-1.1,1.7c-4.5,3.1-9,6.2-13.6,9.1
				c-3.2,2-3.4,2.4-1.9,5.9c1.4,3.3,2.7,6.6,3.8,9.9c1,2.8,1.3,5.8,2.5,8.4c1.6,3.4,3.4,7.1,6,9.7c4.7,4.8,10,9,15.2,13.4
				c1.8,1.6,4,2.8,5.9,4.3c4.7,3.7,9.5,7.3,13.9,11.3c6.4,5.7,13.9,9.6,21.3,13.7c2.1,1.2,3.4,1,5.3-0.2
				c9.6-5.9,18.4-12.9,26.9-20.2c5.1-4.4,10.3-8.6,15.2-13.1c5.9-5.4,11.6-11,17.2-16.6c2-2,4-4.1,5.4-6.5c1.9-3.5,3.6-7.3,4.8-11.1
				c1-3.4,1.1-7.2,1.7-10.7c0.4-2.4-0.1-4.2-2.1-5.6c-0.8-0.5-1.3-1.3-2-2c0.1-0.2,0.1-0.4,0.2-0.7c0.9-0.1,2-0.5,2.7-0.1
				c2.7,1.3,5.2,2.8,6.8,5.7c0.5,0.9,1.9,1.7,3,2c2.6,0.6,5.3,0.7,6.3,3.8c0.1,0.2,0.4,0.4,0.6,0.6c4.2,2,8.6,3.7,12.7,6
				c6.2,3.3,13.9,2.4,19.7,6.8c0.1,0,0.1,0,0.2,0.1c3.1,0.9,6.1,2,9.2,2.7C287.1,340.4,297.6,342.7,308.4,343.2z"/>
			<path class="st1" d="M308.4,343.2c-10.8-0.5-21.3-2.8-31.8-5c-3.1-0.6-6.2-1.8-9.2-2.7c-0.1,0-0.2,0-0.2-0.1
				c-5.8-4.4-13.5-3.4-19.7-6.8c-4.1-2.2-8.5-4-12.7-6c-0.2-0.1-0.5-0.3-0.6-0.6c-1-3.1-3.7-3.3-6.3-3.8c-1.1-0.3-2.4-1-3-2
				c-1.5-2.8-4.1-4.3-6.8-5.7c-0.7-0.3-1.8,0.1-2.7,0.1c-0.1,0.2-0.1,0.4-0.2,0.7c0.6,0.7,1.2,1.5,2,2c2.1,1.4,2.5,3.2,2.1,5.6
				c-0.6,3.6-0.7,7.3-1.7,10.7c-1.1,3.8-2.8,7.6-4.8,11.1c-1.3,2.4-3.4,4.5-5.4,6.5c-5.6,5.6-11.3,11.2-17.2,16.6
				c-4.9,4.5-10.1,8.8-15.2,13.1c-8.5,7.3-17.3,14.3-26.9,20.2c-1.9,1.2-3.2,1.4-5.3,0.2c-7.4-4.1-14.9-8-21.3-13.7
				c-4.5-4-9.2-7.6-13.9-11.3c-1.9-1.5-4-2.7-5.9-4.3c-5.1-4.4-10.5-8.6-15.2-13.4c-2.6-2.7-4.3-6.3-6-9.7c-1.2-2.6-1.6-5.6-2.5-8.4
				c-1.2-3.3-2.4-6.7-3.8-9.9c-1.5-3.5-1.3-3.9,1.9-5.9c4.6-2.9,9.1-6,13.6-9.1c0.5-0.3,0.8-1.1,1.1-1.7c0.2-0.4,0.1-1,0.4-1.2
				c2.6-1.8,2.1-4.9,3.1-7.4c0.4-1-0.1-1.6-1.2-1.7c-2.6-0.1-5.2-0.4-7.8-0.4c-3.8,0-7.6,0.2-11.4,0.1c-1.9-0.1-3.7-0.8-5.6-1.6
				c0.8-0.1,1.5-0.2,2.3-0.2c7,0.1,14.1,0.2,21.1,0.4c2.3,0.1,3.1-0.9,3.9-3c1-2.4,0-4.4-0.2-6.6c-0.1-0.8-1.2-1.5-1.8-2.3
				c-0.9,1.1-1.4,1.9-2.1,2.5c-0.4,0.4-1,0.7-1.5,0.7c-1.5,0.1-5.3-2.7-5.9-4c-0.3-0.7-1-1.5-1.7-1.8c-2.2-0.9-4-1.8-5-4.2
				c-0.9-2.2-3.1-2.1-5.7,0c-2.7,2.2-3.9,2-5.6-1.1c-0.3-0.6-0.7-1.1-1.2-1.5c-0.6-0.4-1.4-1-1.9-0.9c-0.6,0.2-1.1,1.1-1.2,1.8
				c-0.8,3.5-1.8,3.9-4.8,1.6c-1.8-1.4-3.8-1.9-6-1.6c-0.6,0.1-1.5,0.8-1.7,1.5c-0.5,1.8-1.4,2.7-3.2,2.8c-1.3,0.1-2.7,0.4-3,2.2
				c0,0.3-0.7,0.8-0.8,0.8c-1.8-0.7-2.1,0.5-2.5,1.7c-0.4,1.3-1.3,1.4-2.5,1.3c-2.4-0.2-4.8,1.1-5.2,2.8c-0.4,1.5,0,2.7,1.5,3
				c4.6,1,8.8,3.4,13.8,3.1c2.5-0.2,5,0.3,7.5,1c-0.4,0.1-0.9,0.3-1.3,0.2c-8.1-0.3-16.2-0.7-24.3-0.9c-1,0-1.9,0.8-2.9,1.2
				c0.5,0.8,0.8,1.7,1.4,2.3c1.7,1.7,2.9,3.4,2.6,6c-0.1,1.4,0.4,2.9,0.7,4.5c2.1-0.8,3.2-0.3,3.9,1.8c0.3,1,1.9,2,3,2.1
				c3,0.4,4.3,2,4.4,5.3c0.1,3.1-0.2,6.3-0.5,9.4c-0.2,1.9-1.1,3.4-3.2,4.1c-2.9,1-4.7,2.8-5.9,6.1c-1.3,3.8-1.6,7.8-3.2,11.5
				c-0.2,0.5-0.5,1-0.7,1.5c-0.4,1.1-0.8,2.1-1.2,3.2c-0.9,2.3-1.7,4.6-2.6,6.8c-0.1,0.2-0.4,0.4-0.6,0.6c-1.1,2.3-2.1,4.6-3.3,6.8
				c-0.5,0.9-1.2,1.7-1.9,2.6c-0.9,1.2-1.6,2.5-2.6,3.6c-0.6,0.7-1.4,1.2-2.3,1.9c0.5,0.7,2.3,1.3,0.5,3c-0.9,0.8-1,2.6-1.5,3.8
				c-0.8,1.8-1.7,3.5-2.4,5.3c-0.7,1.7-1.1,3.6-1.8,5.3c-0.2,0.6-1.1,0.9-1.9,1.5c0,0.7,0,1.8,0,2.9c0,0.4-0.1,1.1-0.3,1.2
				c-2.7,0.9-2.2,3.7-3.3,5.5c-0.7,1.2-0.9,2.7-2.7,3.3c-0.4,0.1-0.5,1.6-0.5,2.5c-0.1,18.1-0.1,36.2-0.1,54.3c0,19.5,0,38.9,0,58.4
				c0,0.7,0,1.4,0,2.5c0.8,0,1.6,0,2.3,0c66,0,132,0.1,198,0.1c35.3,0,70.6,0,105.9-0.1c0.6,0,1.1,0.1,1.7,0.1
				c-0.1,0.1-0.1,0.4-0.2,0.4c-0.6,0-1.1,0-1.7,0c-102.1,0-204.3,0-306.5,0C0,342,0,155.1,0-32c0.8,0,1.6,0,2.4,0
				c101.4,0,202.7,0,304.1,0c0.6,0,1.3,0.3,1.9,0.4c-7.5,0.1-15.1,0.2-22.6,0.2c-62.9,0-125.7,0-188.6,0c-31.3,0-62.6,0-93.9,0
				c-2.2,0-2.7,0.5-2.7,2.7C0.6,12.6,0.6,54,0.6,95.3c0,3.3,0,3.3,3.2,4.3c0.9,0.3,1.7,1,2.6,1.5c0.5,0.3,1.1,0.6,1.6,0.8
				c0.8,0.3,1.6,0.7,2.5,0.9c0.6,0.2,1.3,0,1.9,0.2c0.6,0.2,1.4,0.6,1.5,1c0.9,3.7,1.7,7.4,2.6,11.1c1.2,5.2,2.4,10.4,3.6,15.5
				c0.9,3.9,1.9,7.7,2.9,11.6c0.1,0.4,0.5,0.8,0.7,1.1c0.2,0,0.4,0,0.6,0c0.1-1,0.4-2.1,0.2-3.1c-0.9-5.9-1.8-11.8-2.8-17.7
				c-1.1-6.8-2.3-13.7-3.6-20.5C17.3,97.1,16,92,14.9,87c-0.2-1.1-0.3-2.3-0.5-3.4c0.2-0.1,0.4-0.1,0.5-0.2c0.4,0.6,0.9,1.2,1.1,1.9
				c0.8,3,1.7,6,2.3,9.1c0.6,3.1,0.9,6.2,1.5,9.2c0.3,1.7,1.1,1.9,2.6,0.7c0.3-0.3,0.9-0.6,1.2-0.5c0.3,0.2,0.7,0.8,0.6,1.2
				c-0.1,1.2-0.6,2.4-0.7,3.7c-0.1,0.6,0.4,1.7,0.6,1.7c2.8-0.2,4.1,1.3,4.4,3.8c0,0.1,0.1,0.2,0.2,0.3c0.1,0.1,0.2,0.1,0.6,0.3
				c0.8-1.2,1.8-2.4,2.3-3.7c0.6-1.8,2-2,3.2-1.7c0.8,0.2,1.2,1.6,2,2.7c-1.5,0-2.3-0.1-3,0.1c-0.2,0.1-0.4,1.4-0.1,1.7
				c0.6,0.5,1.6,1.2,2.2,1c2.7-0.9,4.4,0.2,5.8,2.4c0.4,0.6,0.9,1,1.5,1.7c-0.7,1.3-1.6,2.7,1.1,3.2c0.2-0.6,0.4-1.1,0.9-2.4
				c1.2,1.9,2.6,3.1,3,4.7c1.3,4.8,2.5,9.7,3.4,14.7c0.6,3.6,0.7,7.2,1.1,10.8c0.1,1,0.4,2,0.5,2.9c0.3,0,0.5,0,0.8,0
				c0.1-0.7,0.3-1.4,0.3-2.1c-0.2-4.3-0.7-8.6-0.8-13c-0.3-10.2-0.3-20.4-0.6-30.5c-0.1-2.1-1.2-4.1-1.3-6.2
				c-0.4-6-0.6-12.1-0.8-18.1c0-0.1,0.2-0.2,0.4-0.4c0.2,0.3,0.5,0.5,0.5,0.7c0.7,7.5,1.4,15,2.2,22.5c0.6,5.8,1.2,11.6,1.8,17.4
				c0.1,0.6,0.2,1.2,0.5,1.6c0.9,1.3,1.8,2.6,0.8,3.3c0.8,1.2,1.5,2.4,2.4,3.5c0.4,0.4,1,0.7,1.6,0.8c0.8,0.2,1.7,0.3,2.5,0.5
				c1.5,0.5,2.5-0.1,2.4-1.6c-0.1-1.2-0.4-2.4-0.7-3.6c-0.3-1.1,0-1.9,1.2-1.7c1.8,0.3,4-0.2,5,2.2c-0.3,0.1-0.6,0.2-0.9,0.4
				c-0.9,0.4-2.4,0.6-2.5,1.1c-0.4,1.6-1.4,3.7,1,4.9c0.3,0.2,0.7,1.1,0.5,1.4c-0.8,2.2,0.4,2.6,2.1,2.8c0.5,0.1,1.1,0.3,1.6,0.4
				c0.2-0.1,0.3-0.3,0.5-0.4c-0.8-1.2-1.5-2.4-2.3-3.6c2.9-1.3,3.3-0.9,3.5,2.1c0.1,1.5,0.9,3,1.5,4.7c-1.2,0.3-2.6,0.7-4.2,0.9
				c-1.6,0.3-2.4,1-2.4,2.7c0.1,2.6-0.1,5.2,0.2,7.7c0.2,1.4,1.2,2.6,1.8,3.9c0.8,1.5,1.8,2.9,2.3,4.5c1.4,4.7,2.4,9.5,3.8,14.2
				c1.4,4.6,3.6,8.8,6.6,12.8c4.2,5.6,10,7,16.2,7.8c9.5,1.3,18.9,0.8,28-2.7c1.6-0.6,3-1.6,4.6-2.3c1-0.4,2.1-0.5,3.7-0.8
				c3.5-5.8,6.5-12.5,8.7-19.6c0.9-3.1,1.8-6.2,3.3-9c1.5-2.9,4.2-4.6,7.6-4.7c2.1-0.1,3.7,0.9,5.2,2.5c4.5,5,5.7,11.6,8.7,17.4
				c2.5,4.8,4.7,9.9,9.4,13c2.8,1.8,6,3.3,9.3,4.1c9.1,2.3,18.2,2,27.3-0.3c7.1-1.8,11.6-6.4,14.6-12.7c1.7-3.5,2.6-7.4,3.9-11.1
				c0.5-1.3,0.2-3.2,2.5-3.1c1.9,0.1,4.3,2.3,4.1,4.1c-0.3,3-0.8,5.9-1.2,8.8c-0.4,2.7-1,5.3,1,7.7c0.4,0.5,0.3,1.8,0,2.6
				c-0.7,1.6-1.6,3.2-2.5,4.7c-0.8,1.3-0.4,1.9,1,2.2c2.6,0.5,5.1,1.1,7.6,1.7c2.5,0.7,2.6,1.5,1.7,3.9c-0.8,2.3-2.6,3.5-4.2,5.1
				c-2.5,2.6-4.6,5.5-7,8.3c1.9,1.7,2.4-1.2,3.8-1.1c0.1,0.1,0.3,0.2,0.3,0.2c-0.2,1.5-0.8,3-0.7,4.4c0.2,2.1-1.1,2.6-2.4,3.3
				c-2.7,1.5-5.3,3.1-8,4.4c-0.6,0.3-1.7-0.1-2.5-0.4c-0.6-0.3-1-0.9-1.9-2c-2,11.1-4.1,21.6-8.3,31.7c-3.4-2.6-3.2,1.6-5.5,2.8
				c0.7,0.3,1.2,0.4,1.4,0.7c1.4,1.5,1.1,3.3-0.8,4.2c-1,0.5-2,1-3.1,1.5c0.8,0.5,1.6,0.9,2.3,1.3c-0.8,0.8-1.4,1.7-2.3,2.3
				c-1,0.7-2.1,1.3-3.2,1.9c-0.2-0.2-0.5-0.4-0.7-0.6c0.5-0.8,1.1-1.6,1.4-2.5c0.3-1,1.4-2.3-0.5-3c2.4-1,3.1-2.3,3-4.9
				c-0.1-1.3-0.6-2-2.2-1.7c-0.3,2.2-0.5,4.4-0.8,6.6c-0.9,0.4-1.9,0.8-3.1,1.3c-0.1,0.7,0,2.3-0.7,3.2c-0.7,0.9-2.2,1-3.4,1.5
				c0.6,1.5,3.1,1.2,1.9,3.5c-0.9,1.8-2,1.3-3.2,1.1c-1.7,3.1-3.9,5.3-5.3,5.3c-0.3,1.8-0.6,3.6-1,5.8c-0.7-0.7-1.5-1.4-2.8-2.7
				c0.1,1.6,0.1,2.7,0.2,4.2c-1.9,0.8-4.1,1.7-6.2,2.7c-1.6,0.7-2.7,2.5-4.7,2.4c0,0.5-0.1,1,0,1.5c0.2,0.7,0.5,1.3,0.7,1.9
				c-0.3,0.2-0.5,0.3-0.8,0.5c-0.8-1.1-2.1-2.1-2.3-3.4c-0.4-1.6-0.9-2.1-2-1.7c-0.7,1.6-1.3,3-2.2,4.9c-2-2.5-3.5-4.4-5.2-6.5
				c0.7,3.8-0.5,6.7-3.7,9c-0.2-1.1-0.4-2.2-0.5-3.3c-0.2,0.1-0.6,0.3-1.2,0.6c-0.2-0.6-0.4-1.2-0.6-1.5c-1.2,0.2-2.4,0.5-3.3,0.7
				c-0.8,0.6-1.8,1.7-2.4,1.6c-2.4-0.5-0.9-2.6-1.5-4.3c0.7,0.4,1.1,0.6,1.4,0.8c-0.2-1.7-0.3-3.3-0.5-5.1c-0.7,0-1.7-0.1-3-0.2
				c1-1.8,1.4-3.7,3.7-3.7c1.3,0,2,0.3,1.7,1.9c-0.2,1.4-0.1,2.8,0.4,4.4c-0.1-2.7,1.5-3.5,4-3.6c-0.1-0.2-0.2-0.4-0.4-0.6
				c-0.4-0.2-1-0.3-1.2-0.6c-0.4-0.7-0.8-1.4-0.8-2.2c0-0.4,0.9-1.1,1.4-1.1c1.5-0.1,2.4-0.7,3.1-2.1c0.3-0.8,1.4-1.3,2.2-1.8
				c3.5-2.1,6.3-4.9,8-8.9c-1.7-0.6-2.8-0.9-4.4,0.2c-1.8,1.1-4.3,0.9-6.5,1.3c-1.8,0.3-3.5,0.7-5.3,0.9c-1.3,0.1-2.7,0.1-4,0
				c-4.6-0.4-9.2-0.6-13.8-1.4c-2-0.3-3.7-1.9-5.6-3c-0.5-0.3-1-0.8-1.4-1.2c-1.9,1.8-2.1,3.8-0.8,5.6c1.1,1.7,2,3.6,2.9,5.4
				c1.1,2.2,3.3,2.8,5.5,3.2c2.7,0.4,2.9,0.5,2.5,3.3c-0.1,0.5-0.1,0.9-0.1,1c2.1-0.3,4.1-0.5,6.2-0.8c0.1,0.3,0.3,0.6,0.4,0.9
				c-0.8,0.7-1.5,1.5-2.4,1.9c-1.5,0.7-3.1,1.3-4.6,1.4c-1.4,0.1-1.9,0.6-2.4,1.9c-0.6,1.5-1.5,1.5-2.5,0.2c-0.8-1-1.1-2.8-2.9-2.2
				c-1.8,0.5-2.5,1.9-2.9,3.6c-0.1,0.6-0.4,1.2-0.6,1.8c-0.2,0-0.4,0-0.6,0c-0.3-1.1-0.5-2.1-0.9-3.5c-2.6-1.1-5.6-2.3-9-3.7
				c0.2-0.7,0.6-1.7,0.9-2.6c0.2-0.5,0.2-1,0.3-1.5c-0.5,0-1.1-0.1-1.6,0c-0.7,0.1-1.4,0.4-2.8,0.8c0.6-1.4,0.9-2.1,1.4-3.2
				c-2.1-0.3-6.4,2.6-4.8-3.2c-0.7,0.1-1.2,0.2-1.8,0.3c-0.1-0.6-0.2-1.2-0.4-1.8c-0.5,0.1-0.9,0.2-1.7,0.3c0.4-2.2,0.7-4.2,1-6.1
				c-0.3-0.2-0.6-0.3-0.8-0.5c-0.1,2.2-1.1,2.7-2.7,2.1c-0.2-0.1-0.7-0.3-0.7-0.5c0.1-2.5-2.7-4.8-0.4-7.6c-0.7-0.2-1.2-0.3-1.8-0.5
				c0.1-0.8,0.3-1.6,0.4-2.6c-0.7,0.1-1.3,0.2-2.3,0.3c0-2.6,0-5.1,0-8.1c-0.6,0.8-0.9,1.3-1.3,1.9c-0.4-0.3-0.7-0.6-0.9-0.7
				c-0.8,0.4-1.5,0.8-2.2,1.2c-0.1-1.3-0.3-2.7-0.4-4c0-0.3,0.5-0.7,0.8-1.1c-0.6-0.9-1.3-1.7-1.9-2.7c-0.3,0.2-0.6,0.5-1,0.9
				c-0.6-0.6-1.2-1.3-1.5-1.6c-1.2,1.2-2.4,2.1-3.3,3.2c-0.6,0.7-0.7,1.7-1.1,2.8c-0.5-0.3-1-0.6-1.6-0.8c-0.2,0.1-0.4,0.2-0.5,0.4
				c1.2,2.4,2.4,4.9,3.6,7.4c-1.8,2-1.9,6.2,0.5,8.7c1.9,2.1,3.1,4.3,3.4,7.1c0.3,2.3,0.6,4.6,0.9,6.9c0,0.4-0.1,0.9-0.2,1.4
				c3,3,3.8,6.4,1.2,10.1c2,1.4,3,5.2,2.4,7.6c-0.2,0.8-0.1,1.8,0.1,2.6c0.9,5.6,5.3,8.6,8.9,12.2c0.7,0.7,1.1,1.9,1.6,2.8
				c0.4,0.6,0.8,1.3,1.3,1.8c0.9,0.9,2.1,1.6,2.6,2.6c1.2,2.5,3.3,4,5.1,5.9c2.4,2.6,4.6,5.3,6.8,8.1c3.3,4.3,9.4,5.6,14.4,4.3
				c3.1-0.8,5.9-2.4,9-2.7c5.6-0.6,10.6-2.8,15.7-4.8c0.2-0.1,0.4-0.4,0.5-0.3c3.2,1,5.7-2.7,9-1.5c0.4,0.1,1-0.4,1.5-0.6
				c1.2-0.4,2.5-0.7,3.6-1.2c1-0.4,2.2-0.9,2.7-1.8c0.9-1.3,1.9-1.8,3.3-2.3c2.5-0.7,3.6-3.3,5.3-5.1c0.5-0.5,1-1.2,1.6-1.3
				c2.9-0.5,3.6-1,4.5-3.8c0.2-0.6,0.8-1,1.1-1.5c0.4-0.7,1-1.5,0.9-2.2c-0.3-1.4,0.7-1.8,1.5-2.5c1.5-1.3,3.2-2.6,4.4-4.1
				c0.8-1,0.7-2.6,1.1-3.9c0.5-1.5,0.9-3.4,2-4.4c1.3-1.3,1.3-1.9-0.4-2.6c0.7-0.8,1.3-1.5,2-2.3c1.5,2,2.9,1.2,4.7,0.3
				c4.8-2.3,9.8-4.2,14.7-6.3c5.3-2.4,10.5-5,15.8-7.4c5.4-2.5,11-4.7,16.4-7.2c4.3-2,8.5-4.1,12.8-6.1c3.9-1.9,7.8-3.8,11.7-5.6
				c7.6-3.6,15.1-7.3,22.7-10.9C308.4,281,308.4,312.1,308.4,343.2z M144.5,230c-1.2-3.2-1.1-3,1.2-5.1c1.1-1,2.1-0.5,3.1-0.7
				c2.7-0.8,5.4-1.8,8-2.9c0.6-0.3,1.2-1,1.5-1.6c0.8-1.6,2.1-2,3.7-2c2.9-0.1,5.8-0.2,8.7-0.4c1.8-0.1,1.8-1,1-2.3
				c-1.7-2.9-6.1-3.5-9.3-1.5c-1.6,1-3.3,1.9-5.1,2.3c-1.4,0.3-3.2-0.1-4.6-0.6c-2.5-0.9-5.3-1.8-7.2-3.5c-1.6-1.5-3-1.7-4.7-1.3
				c-2.5,0.7-5,1.6-7.6,2.3c-2.7,0.8-3.8,2.8-2.3,5.2c0.7,1.1,2.1,1.9,3.2,2.5c1.2,0.7,2.6,1,3.9,1.6c2.1,0.9,2.8,3.3,1.8,5.3
				c-0.6,1.2-1,2.6-1.6,3.9c-0.1,0.3-0.4,0.5-0.6,0.7c-0.2-0.3-0.5-0.6-0.7-0.8c-0.1-0.1-0.3-0.1-0.5-0.2c-0.4,0.4-0.9,0.8-1.4,1.2
				c-0.7-0.5-1.3-0.9-1.6-1.1c-4.3,2.4-8.4,4.7-13,7.2c0.1-1.2,0.1-1.6,0.2-2.2c-0.4,0.2-0.6,0.2-0.7,0.4c-2,2.1-3.9,3.9-6.9,4.6
				c-2,0.5-3.5,4.7-2.6,6.7c0.7,1.4,0.3,2.5-0.9,3.4c-0.7,0.6-1.4,1.2-2.1,1.8c0.1,0.2,0.2,0.3,0.3,0.5c1.4-0.2,2.7-0.3,4.1-0.5
				c0.2,0.1,0.3,0.3,0.5,0.4c-0.7,1-1.5,2-2.2,3c3.1,1.4,3.1,1.4,5.3-1c-0.2,1.1-0.4,2-0.6,2.9c0.2,0.1,0.3,0.3,0.5,0.4
				c0.6-2.5,2.2-3.5,4.5-3.5c0.2,0,0.5-0.3,0.7-0.5c2.7-1.9,3.8-2,6.2,0c0.6,0.5,1,1.4,1.2,1.7c2-1,3.7-2.4,5.5-2.6
				c5.1-0.4,10.2-0.3,15.4-0.3c3,0,6.1,0.1,9.1,0.1c4.1,0.1,8.1,0,12.2,0.2c4.7,0.1,9.3,0.3,14,0.6c1.5,0.1,2.9,0.8,4.4,1.3
				c0.9,0.3,1.7,0.6,2.6,1c0.2-0.3,0.4-0.5,0.5-0.8c0.4,0.8,0.9,1.6,1.3,2.4c0.2-0.1,0.4-0.3,0.6-0.4c0-1,0-2,0-3.1
				c1,0.5,1.8,0.9,2.6,1.3c0,0.5-0.1,1.2-0.1,1.9c1.7-1.6,3.1-3,1.5-5.3c-0.8-1.1-1.1-2.7-1.7-4.2c1.6,0.6,3,1.1,4.3,1.5
				c-0.5-0.9-1.5-1.5-2-2.3c-1.4-2.4-1.7-2.6-4.1-1.3c-1-0.6-1.8-1.3-2.8-1.5c-1.1-0.3-1.8-0.6-1.9-1.9c-0.1-0.5-0.3-1.1-0.7-1.5
				c-0.4-0.4-1.2-0.8-1.5-0.7c-0.4,0.2-0.8,1-0.9,1.5c-0.1,0.6,0.3,1.3,0.5,2.3c-1.2-0.4-2-0.7-2.9-1c-0.9,2.5,0.5,4.3,2,6.1
				c-1.2,0.8-2.2,1.9-3.4,2c-2.7,0.3-5.6-0.5-8.2,1c-0.5,0.3-1.2-0.1-1.9-0.1c-1.3-0.1-2.6-0.2-3.9-0.2c-1.8,0-3.7,0.4-5.5,0.1
				c-4.1-0.7-8.2-1.7-12.3-2.5c-0.7-0.1-1.5-0.1-2.1,0.1c-3.2,1.2-6,0.3-8.8-1.2c-2.4-1.3-4.7-2.6-7.6-1.7c-1.2,0.3-2.6,0.1-3.8,0
				c-1.5-0.2-2.6-1.3-2.2-2.6c0.4-1.5,1.3-3,2.4-4.1c1.9-2,4.2-3.7,6.8-5.9c-1,1.6-1.8,2.8-2.5,4c2.8,1,4.8-1.3,4.3-5.2
				c0.9,0,1.8,0.1,2.8,0.1C141.1,231.9,140.4,228.3,144.5,230z M79.8,185.1c-1.6-4.5-4-8.4-7.2-11.6c-1.1-1.1-2-0.6-2.8,0.8
				c-1.3,2.4,1.4,6.5,3.3,8.6c0.5,0.6,1.7,0.5,2.6,0.7c0.8,0.2,1.6,0.2,2.3,0.5C78.7,184.3,79.2,184.8,79.8,185.1z M81.7,205.6
				c-1.4,2-0.8,3.5-0.3,5c0.6,1.9,1.7,3.9,1.4,5.7c-0.8,5.1,1.7,9.5,2.2,14.3c0,0.1,0.3,0.2,0.8,0.6c0.2-1.2,0.5-2.1,0.5-3
				c0.1-7-2.3-13.5-3.6-20.2C82.5,207.3,82.1,206.7,81.7,205.6z M236.6,181.9c1.1-2.2,2.1-4.2,2.9-6.3c0.2-0.6-0.1-1.7-0.5-2.2
				c-0.3-0.3-1.5-0.1-2,0.3C233.3,175.9,233.2,178.3,236.6,181.9z M66,137.9c-0.8-0.9-1.3-1.4-1.9-2c-0.4,0.5-1.2,1.1-1.1,1.6
				c0.1,0.8,0.8,1.6,1.2,2.3C64.7,139.2,65.2,138.7,66,137.9z M198.9,266.6c-0.2,0.1-0.5,0.2-0.7,0.3c0.3,1.1,0.7,2.2,1,3.2
				c0.3-0.1,0.6-0.2,0.9-0.3C199.6,268.8,199.3,267.7,198.9,266.6z"/>
			<path class="st1" d="M136.2,145.9c-2.1-0.5-4.2-0.9-6.2-1.7c-1.7-0.7-3.3-1.8-5-2.7c-0.7-0.4-1.5-0.9-2.3-0.9
				c-12.7-0.7-25.3-1.2-38,0.4c-0.9,0.1-1.8,0-2.6,0c0.3-0.9,0.8-1.7,0.8-2.4c0.3-4.1,0.4-8.3,4.8-11.2c-1.1-0.2-1.7-0.3-2-0.4
				c-0.4-1.5-0.9-2.8-1.1-4.1c-0.1-0.8,0.1-1.8,0.4-2.6c0.4-1.1,1.1-2,1.7-3c0.4-0.7,0.5-1.8,1.1-2.3c2.6-2.1,2-4.9,1.9-7.7
				c-0.1-1.5,0-3,0.2-4.4c0.3-2.9,0.5-5.7,1.1-8.6c0.3-1.5,1.1-2.9,1.8-4.2c1-1.8,2.1-3.6,3.4-5.2c1.6-1.9,3.3-3.9,5.3-5.4
				c2.2-1.7,4.8-2.8,7.2-4.2c0.5-0.3,0.8-1,1.1-1.5c0.3-0.4,0.4-1,0.8-1.2c1.6-1.3,3.1-2.8,4.9-3.6c1.8-0.8,3.9-1,5.9-1.4
				c1.7-0.4,3.3-1.4,5.1-0.4c0.5,0.3,1.4-0.4,2.2-0.6c0.7-0.2,1.5-0.3,2.3-0.5c0.3-0.1,0.9,0,1-0.1c0.9-3.3,5.3-1.6,6.6-4.6
				c0.3-0.6,2.5-0.3,4-0.4c0.1-1.2,1.1-1.2,2.4-1.6c4.5-1.6,9.3-0.2,13.8-1.5c0.7-0.2,1.6-0.3,2.2-0.7c0.9-0.6,1.5-1,2.4-0.1
				c0.1,0.1,0.5,0.2,0.6,0.1c1.8-1.7,3.1,0.1,4.5,0.7c0.7,0.3,1.5,0.3,2.2,0.5c1.4,0.3,2.8,0.7,4.2,1.1c0.1,0,0.1,0.1,0.2,0.1
				c2-0.8,3.4,1,5.1,1.3c3.8,0.8,7.6,1.2,10.9,3.7c1.1,0.8,2.7,0.9,4.1,1.3c2.1,0.6,4.3,1.1,6.4,1.8c0.4,0.1,0.8,0.6,1.2,0.9
				c1.1,0.9,2.2,2.5,3.4,2.7c3.4,0.5,5.1,3,6.9,5.2c3.1,3.7,6.2,7.5,8.7,11.6c2.1,3.5,3.7,7.4,5.1,11.2c2.3,6.1,4.6,12.3,4.6,19
				c0,1.5-0.3,3.1-0.4,4.6c-0.1,1.2-0.2,2.4-0.2,3.6c0.1,3.7,0.2,7.4,0.4,11.1c0,0.8,0.3,1.6,0.5,2.5c-1.7-0.1-3.6-0.4-5.6-0.5
				c-6.8-0.3-13.6-0.6-20.5-0.8c-0.6,0-1.3,0-1.7,0.3c-3.2,3-7.2,2.2-10.9,2.7c-0.8,0.1-1.6,0.1-2.3,0.4c5.7,0,11.4-0.3,17.1,0.1
				c5,0.3,10.1,1,15,2.1c5.5,1.2,8.3,5.2,8.8,10.8c0.8,9.3-0.3,18.2-3.8,27c-2,5-4.9,8.2-9.6,9.9c-2.4,0.9-5.2,0.7-7.8,1.2
				c-6.4,1.3-13,1.3-19.3,0.1c-6.9-1.3-12.7-5-16.5-11.2c-1.1-1.8-1.9-3.7-2.9-5.5c-0.2-0.4-0.8-0.7-1.1-1.1
				c-0.7-3.3-1.4-6.6-2.1-9.9c-0.3,0.1-0.5,0.1-0.8,0.2c1,3.2,2,6.4,3.1,9.6c-1.3-2.6-2.8-5.2-4-7.9c-1.3-2.9-2.5-5.9-3.7-8.8
				c-0.2-0.6-0.3-1.4-0.2-2c0.6-3.5,1.3-7,1.9-10.5c0.3-1.6-0.2-2.3-1.9-2.1c-0.7,0.1-1.4,0.1-2.1,0.1c-2,0-2.8,1.1-3,2.9
				c-0.2,1.3-0.1,2.6-0.3,3.8c-0.2,0.8-0.8,1.6-1.1,2.4c-0.4-0.7-1-1.4-1.2-2.2c-0.3-1.4-0.3-2.8-0.4-4.2c-0.2-1.7-1-2.5-2.8-2.6
				c-5.9-0.4-5.9-0.4-4.9,5.4c0.5,2.6,1.3,5.1,1.7,7.7c0.2,1-0.4,2.2-0.7,3.2c-1.3,3.7-2.7,7.4-4.1,11.1c-0.2,0-0.4-0.1-0.5-0.1
				c0.1-0.8,0.1-1.7,0.3-2.5c1.5-5.9,1.6-11.8-0.5-17.6c-0.8-2.3-2.5-3.5-4.6-4.5c-0.6-0.3-1.2-0.5-1.7-0.7
				C136.8,146.1,136.5,146,136.2,145.9z M196.7,161c-1,2.6-1.8,5-2.7,7.4c-0.1,0.3-0.5,0.5-0.8,0.7c-0.8,0.6-1.5,1.2-2.3,1.8
				c1,0.5,1.9,1,2.9,1.4c0.4,0.2,1,0.2,1.5,0.3c3.6,0.3,4.4-0.5,4.5-3.9c0.2,0.1,0.4,0.2,0.5,0.3c1-1.7,2.1-3.3,3.4-5.3
				c1.4,1.1,3.1,1.9,4.1,3.2c1,1.4,2.8,2.4,4.6,1.8C211.6,164.2,200.8,160,196.7,161z M165,158.7c0.2,0,0.4-0.1,0.6-0.1
				c0.5-2.8,0.5-5.8,1.6-8.2c1.1-2.4-0.7-4.3,0.2-6.5c-0.4,0.1-0.7,0.2-0.7,0.4c-0.8,3.4-1.7,6.9-2.3,10.3
				C164.2,155.9,164.8,157.4,165,158.7z M230,164.2c1.2-1.7,1.4-4.3,0.6-7.3c-0.1-0.4-0.5-0.8-0.7-1.2c-0.4,0.3-1,0.5-1.3,0.9
				C227.3,158.6,228,162.5,230,164.2z M207.3,154.8c1.3,2,2.6,4.1,4,6.1c0.2,0.3,0.4,0.7,0.7,0.7c0.5,0.1,1.1,0.2,1.5,0
				c0.2-0.1,0.3-0.9,0.1-1.3C212.7,157.4,210.3,155.8,207.3,154.8z"/>
			<path class="st1" d="M136.2,145.9c0.3,0.1,0.6,0.3,0.9,0.4c4.6,2.1,6.6,5.6,6.7,10.6c0.2,9.7-1.9,18.8-7.5,26.9
				c-4.3,6.3-10.3,9.6-17.8,10.5c-10.2,1.2-20.3,1-29.7-3.5c-2.3-1.1-4.1-3.7-5.3-6.1c-1.6-3.1-2.7-6.5-3.2-9.8
				c-0.8-5.7-1.7-11.6-1.3-17.4c0.6-8.2,4-11,13-12.8c10.3-2.1,20.8-2.1,31.3-0.7C127.6,144.6,131.9,145.2,136.2,145.9z M91.2,152.5
				c1.6,2.1,2.9,3.4,1.6,5.7c-1.6,3-0.3,6.5,2.6,8.1c0.9,0.5,1.9,1,2.9,1.3c1.2,0.3,1.4,0.9,1.1,2.1c-0.7,3.2,0.5,5.3,3.6,6.4
				c1.6,0.6,2.1,0.1,2.1-1.7c0-0.8,0.5-2.1,1-2.3c1.4-0.4,1.8-1.3,2.3-2.5c0.3-0.7,1.1-1.4,1.8-1.6c0.3-0.1,1,0.9,1.5,1.4
				c1.2,1.4,2.2,3.4,3.7,4.1c4.4,2,11.2-2.2,10.4-7.5c-0.1-0.9-0.4-1.9-0.1-2.7c0.6-1.9-0.5-2-1.7-1.9c-3.8,0.4-7.6,0.8-11.4,1.4
				c-2.3,0.4-4.6,1.4-6.9,2c-0.5,0.1-1.3,0.1-1.5-0.2c-0.2-0.3-0.2-1.1,0.1-1.5c1.1-1.8,2.1-3.9,3.6-5.1c4.1-3.3,8.9-5,14.3-4.2
				c1.2,0.2,2.5,0.5,3.9,0.8c0-1,0-1.9,0-2.5c-0.9-0.2-1.5-0.4-2.1-0.6c0.4-0.5,0.9-1,1.1-1.6c0.5-1.1,1.1-2.3,1-3.4
				c0-0.6-1.2-1.4-2-1.6c-3.8-1-7.4,0.6-11.1,1c-2.4,0.3-4.8,0.8-6.8-0.6c-3-2-6-1.2-7.5,2.1c-0.4,0.9-1.6,1.5-2.5,2.1
				C94.5,150.7,92.9,151.5,91.2,152.5z M81.9,156.4c-0.3,0-0.6,0.1-1,0.1c-0.1,2.5-0.4,5.1,0.2,7.5c0.3,0,0.5,0,0.8,0
				C81.9,161.4,81.9,158.9,81.9,156.4z"/>
			<path class="st1" d="M238.1,157.1c4.5-4.4,2.4-10.1,3.5-15.2c0,2.3,0,4.6,0,7c0,1.2-0.3,2.4-0.3,3.6
				C241.3,154.7,239.8,156,238.1,157.1z"/>
			<path d="M170.9,175.4c-1-3.2-2-6.4-3.1-9.6c0.3-0.1,0.5-0.1,0.8-0.2c0.7,3.3,1.4,6.6,2.1,9.9
				C170.7,175.5,170.9,175.4,170.9,175.4z"/>
			<path class="st1" d="M236.3,151.6c-0.6-0.8-1.1-1.2-1.2-1.7c-0.1-0.2,0.8-1,1-0.9c0.5,0.2,1,0.7,1.2,1.1
				C237.4,150.3,236.8,150.8,236.3,151.6z"/>
			<path d="M144.5,230c-4.1-1.7-3.4,1.9-4.3,3.5c-1,0-1.9-0.1-2.8-0.1c0.6,3.8-1.5,6.1-4.3,5.2c0.7-1.1,1.5-2.3,2.5-4
				c-2.6,2.3-4.9,3.9-6.8,5.9c-1.1,1.1-2,2.6-2.4,4.1c-0.4,1.4,0.7,2.4,2.2,2.6c1.3,0.2,2.6,0.4,3.8,0c2.9-0.8,5.2,0.4,7.6,1.7
				c2.7,1.5,5.6,2.3,8.8,1.2c0.6-0.2,1.4-0.3,2.1-0.1c4.1,0.8,8.1,1.8,12.3,2.5c1.8,0.3,3.6-0.1,5.5-0.1c1.3,0,2.6,0.1,3.9,0.2
				c0.6,0,1.4,0.4,1.9,0.1c2.6-1.5,5.5-0.7,8.2-1c1.1-0.1,2.1-1.2,3.4-2c-1.4-1.8-2.9-3.6-2-6.1c0.9,0.3,1.7,0.6,2.9,1
				c-0.3-1-0.6-1.7-0.5-2.3c0.1-0.6,0.4-1.3,0.9-1.5c0.3-0.2,1.1,0.3,1.5,0.7c0.4,0.4,0.7,1,0.7,1.5c0.1,1.2,0.8,1.6,1.9,1.9
				c1,0.2,1.8,1,2.8,1.5c2.3-1.3,2.7-1.1,4.1,1.3c0.5,0.8,1.4,1.3,2,2.3c-1.4-0.5-2.7-1-4.3-1.5c0.6,1.6,0.9,3.1,1.7,4.2
				c1.6,2.3,0.2,3.8-1.5,5.3c0-0.7,0.1-1.3,0.1-1.9c-0.9-0.4-1.7-0.8-2.6-1.3c0,1.1,0,2.1,0,3.1c-0.2,0.1-0.4,0.3-0.6,0.4
				c-0.4-0.8-0.9-1.6-1.3-2.4c-0.2,0.3-0.4,0.5-0.5,0.8c-0.9-0.3-1.7-0.7-2.6-1c-1.5-0.5-2.9-1.1-4.4-1.3c-4.7-0.3-9.3-0.5-14-0.6
				c-4.1-0.1-8.1-0.1-12.2-0.2c-3,0-6.1-0.1-9.1-0.1c-5.1,0-10.3-0.1-15.4,0.3c-1.8,0.1-3.5,1.6-5.5,2.6c-0.2-0.3-0.6-1.2-1.2-1.7
				c-2.4-2-3.5-2-6.2,0c-0.2,0.2-0.5,0.5-0.7,0.5c-2.3-0.1-3.9,0.9-4.5,3.5c-0.2-0.1-0.3-0.3-0.5-0.4c0.2-0.9,0.4-1.8,0.6-2.9
				c-2.2,2.4-2.2,2.4-5.3,1c0.7-1,1.5-2,2.2-3c-0.2-0.1-0.3-0.3-0.5-0.4c-1.4,0.2-2.7,0.3-4.1,0.5c-0.1-0.2-0.2-0.3-0.3-0.5
				c0.7-0.6,1.4-1.2,2.1-1.8c1.1-0.9,1.5-1.9,0.9-3.4c-0.9-1.9,0.6-6.2,2.6-6.7c3-0.7,5-2.6,6.9-4.6c0.1-0.1,0.4-0.2,0.7-0.4
				c0,0.6-0.1,1-0.2,2.2c4.5-2.5,8.7-4.8,13-7.2c0.3,0.2,0.9,0.6,1.6,1.1c0.5-0.5,1-0.9,1.4-1.2c0.2,0.1,0.4,0.1,0.5,0.2
				c0.3,0.3,0.5,0.5,0.7,0.8c0.2-0.2,0.5-0.4,0.6-0.7c0.5-1.3,0.9-2.6,1.6-3.9c1-2,0.3-4.4-1.8-5.3c-1.3-0.6-2.7-0.9-3.9-1.6
				c-1.2-0.7-2.6-1.4-3.2-2.5c-1.5-2.4-0.4-4.5,2.3-5.2c2.5-0.7,5-1.6,7.6-2.3c1.7-0.4,3.1-0.2,4.7,1.3c1.9,1.7,4.7,2.6,7.2,3.5
				c1.4,0.5,3.2,0.9,4.6,0.6c1.8-0.4,3.5-1.3,5.1-2.3c3.2-2,7.5-1.4,9.3,1.5c0.8,1.3,0.8,2.2-1,2.3c-2.9,0.2-5.8,0.3-8.7,0.4
				c-1.6,0.1-2.9,0.4-3.7,2c-0.3,0.6-0.9,1.4-1.5,1.6c-2.6,1.1-5.3,2.2-8,2.9c-1,0.3-2-0.2-3.1,0.7C143.4,227,143.2,226.8,144.5,230
				z"/>
			<path d="M79.8,185.1c-0.6-0.4-1.1-0.8-1.7-1c-0.7-0.3-1.6-0.3-2.3-0.5c-0.9-0.2-2.1-0.1-2.6-0.7c-1.9-2.1-4.6-6.3-3.3-8.6
				c0.7-1.4,1.7-1.9,2.8-0.8C75.8,176.8,78.2,180.7,79.8,185.1z"/>
			<path d="M81.7,205.6c0.4,1.1,0.8,1.7,1,2.4c1.3,6.7,3.7,13.2,3.6,20.2c0,0.9-0.3,1.8-0.5,3c-0.5-0.4-0.8-0.5-0.8-0.6
				c-0.5-4.8-3-9.2-2.2-14.3c0.3-1.8-0.8-3.8-1.4-5.7C80.9,209.1,80.3,207.6,81.7,205.6z"/>
			<path d="M236.6,181.9c-3.4-3.6-3.3-6,0.4-8.3c0.6-0.3,1.8-0.6,2-0.3c0.5,0.5,0.8,1.6,0.5,2.2
				C238.7,177.7,237.7,179.7,236.6,181.9z"/>
			<path d="M207,265.5c0.3-2.2,0.5-4.4,0.8-6.6c1.6-0.2,2.1,0.5,2.2,1.7C210.1,263.2,209.4,264.5,207,265.5
				C207,265.5,207,265.5,207,265.5z"/>
			<path d="M66,137.9c-0.8,0.8-1.3,1.4-1.8,1.9c-0.4-0.8-1.1-1.5-1.2-2.3c-0.1-0.5,0.7-1.1,1.1-1.6C64.7,136.4,65.2,137,66,137.9z"
				/>
			<path d="M198.9,266.6c0.4,1.1,0.7,2.1,1.1,3.2c-0.3,0.1-0.6,0.2-0.9,0.3c-0.3-1.1-0.7-2.2-1-3.2
				C198.4,266.8,198.6,266.7,198.9,266.6z"/>
			<path d="M196.7,161c4.2-1,14.9,3.2,15.7,7.5c-1.8,0.6-3.6-0.4-4.6-1.8c-1-1.3-2.7-2.1-4.1-3.2c-1.3,2-2.3,3.7-3.4,5.3
				c-0.2-0.1-0.4-0.2-0.5-0.3c0,3.5-0.9,4.3-4.5,3.9c-0.5,0-1-0.1-1.5-0.3c-1-0.4-1.9-0.9-2.9-1.4c0.8-0.6,1.5-1.2,2.3-1.8
				c0.3-0.2,0.7-0.4,0.8-0.7C194.9,166,195.7,163.6,196.7,161z"/>
			<path d="M165,158.7c-0.2-1.4-0.8-2.8-0.6-4.1c0.6-3.5,1.5-6.9,2.3-10.3c0-0.2,0.3-0.3,0.7-0.4c-0.9,2.1,1,4-0.2,6.5
				c-1.2,2.4-1.1,5.4-1.6,8.2C165.4,158.6,165.2,158.7,165,158.7z"/>
			<path d="M230,164.2c-1.9-1.7-2.6-5.5-1.4-7.5c0.3-0.4,0.8-0.6,1.3-0.9c0.3,0.4,0.6,0.7,0.7,1.2
				C231.3,159.9,231.1,162.4,230,164.2z"/>
			<path d="M207.3,154.8c3,1,5.4,2.6,6.4,5.6c0.1,0.4,0.1,1.2-0.1,1.3c-0.4,0.2-1,0.1-1.5,0c-0.3-0.1-0.5-0.5-0.7-0.7
				C209.9,158.9,208.6,156.9,207.3,154.8z"/>
			<path d="M91.2,152.5c1.7-1,3.4-1.8,4.9-2.8c0.9-0.6,2.1-1.2,2.5-2.1c1.6-3.3,4.5-4.1,7.5-2.1c2.1,1.4,4.4,0.8,6.8,0.6
				c3.7-0.4,7.3-2,11.1-1c0.8,0.2,2,1,2,1.6c0,1.1-0.6,2.3-1,3.4c-0.2,0.6-0.7,1-1.1,1.6c0.6,0.2,1.2,0.4,2.1,0.6c0,0.6,0,1.5,0,2.5
				c-1.4-0.3-2.6-0.6-3.9-0.8c-5.4-0.8-10.2,0.8-14.3,4.2c-1.6,1.3-2.5,3.4-3.6,5.1c-0.3,0.4-0.3,1.2-0.1,1.5c0.2,0.3,1,0.3,1.5,0.2
				c2.3-0.6,4.6-1.6,6.9-2c3.8-0.7,7.6-1,11.4-1.4c1.3-0.1,2.3,0,1.7,1.9c-0.3,0.8,0,1.8,0.1,2.7c0.8,5.3-6,9.5-10.4,7.5
				c-1.6-0.7-2.5-2.7-3.7-4.1c-0.5-0.5-1.2-1.5-1.5-1.4c-0.7,0.3-1.5,0.9-1.8,1.6c-0.5,1.2-0.8,2.1-2.3,2.5c-0.5,0.1-1,1.5-1,2.3
				c0,1.7-0.5,2.2-2.1,1.7c-3.1-1.1-4.3-3.2-3.6-6.4c0.3-1.1,0.1-1.7-1.1-2.1c-1-0.3-2-0.8-2.9-1.3c-2.9-1.6-4.3-5.1-2.6-8.1
				C94,155.9,92.8,154.6,91.2,152.5z"/>
			<path d="M81.9,156.4c0,2.5,0,5.1,0,7.6c-0.3,0-0.5,0-0.8,0c-0.6-2.5-0.3-5-0.2-7.5C81.3,156.4,81.6,156.4,81.9,156.4z"/>
		</g>
	</g>
</g>
<path d="M99.3,451.7l2.3,2.2c-5.2,5.2-11.3,7.7-18.3,7.7c-7.6,0-14-2.9-19.3-8.7c-5.3-5.8-8-12.9-8-21.1c0-8.2,2.7-15.2,8-21.1
	s11.7-8.8,19.3-8.8c7,0,13.1,2.6,18.3,7.8l-2.3,2.2c-4.6-4.4-9.9-6.6-16.1-6.6c-6.7,0-12.4,2.6-17.1,7.7c-4.7,5.2-7.1,11.4-7.1,18.7
	c0,7.3,2.4,13.6,7.1,18.8c4.7,5.2,10.4,7.7,17.1,7.7C89.4,458.3,94.8,456.1,99.3,451.7z"/>
<path d="M142.9,461h-3v-7.3c-0.6,0.9-1.2,1.7-1.9,2.4c-3.6,3.9-7.9,5.9-13,5.9c-5,0-9.3-2-12.9-5.9s-5.4-8.6-5.4-14.1
	c0-5.5,1.8-10.3,5.4-14.2c3.6-3.9,7.9-5.9,12.9-5.9c5.1,0,9.4,2,13,5.9c0.7,0.8,1.3,1.6,1.9,2.4v-5.1h3V461z M139.9,445.2v-6.5
	c-0.6-3.2-1.9-6-4.1-8.4c-3-3.2-6.5-4.9-10.7-4.9s-7.7,1.6-10.7,4.9c-3,3.2-4.4,7.1-4.4,11.7c0,4.6,1.5,8.4,4.4,11.7
	c3,3.2,6.5,4.8,10.7,4.8s7.7-1.6,10.7-4.9C137.9,451.2,139.3,448.4,139.9,445.2z"/>
<path d="M150,425.2h3v0.9c1.9-2,4.1-3,6.7-3c2.7,0,5,1,6.9,3.1c0.5,0.5,0.9,1.2,1.3,1.8c0.4-0.6,0.9-1.2,1.4-1.8
	c1.9-2.1,4.2-3.1,6.9-3.1c2.7,0,5,1,6.9,3.1c1.8,2,2.7,4.4,2.8,7.2V461h-3v-27.6h0c-0.1-1.9-0.7-3.5-2-4.8c-1.3-1.4-2.9-2.1-4.7-2.1
	c-1.9,0-3.4,0.7-4.8,2.1c-1.3,1.4-2,3.2-2,5.4V461h-3v-27.6h0c-0.1-1.9-0.8-3.5-2-4.8c-1.3-1.4-2.9-2.1-4.7-2.1s-3.4,0.7-4.7,2.1
	c-1.2,1.2-1.8,2.7-2,4.5V461h-3V425.2z"/>
<path d="M197.6,413.5c0.6,0.6,0.9,1.4,0.9,2.3c0,0.9-0.3,1.7-0.9,2.3c-0.6,0.6-1.3,0.9-2.1,0.9c-0.8,0-1.5-0.3-2.1-0.9
	s-0.9-1.4-0.9-2.3c0-0.9,0.3-1.6,0.9-2.3s1.3-0.9,2.1-0.9C196.3,412.5,197,412.9,197.6,413.5z M197,425.2V461h-3v-35.8H197z"/>
<path d="M208.6,402.7V461h-3v-58.3H208.6z"/>
<path d="M233.7,422c5.1,0,9.4,2,12.9,5.9c3.6,3.9,5.3,8.6,5.3,14.2c0,5.5-1.8,10.2-5.3,14.1s-7.9,5.9-12.9,5.9c-5,0-9.3-2-12.9-5.9
	s-5.4-8.6-5.4-14.1c0-5.5,1.8-10.3,5.4-14.2C224.4,423.9,228.7,422,233.7,422z M223,430.3c-3,3.2-4.4,7.1-4.4,11.7
	c0,4.6,1.5,8.4,4.4,11.7c3,3.2,6.5,4.8,10.7,4.8s7.7-1.6,10.7-4.8c3-3.2,4.4-7.1,4.4-11.7c0-4.6-1.5-8.5-4.4-11.7
	c-3-3.2-6.5-4.9-10.7-4.9S226,427.1,223,430.3z"/>
<path d="M93.5,467H96l-15.3,48.1h-1.5L64,467h2.5L80,510.2L93.5,467z"/>
<path d="M102.5,475.9c0.5,0.5,0.7,1.1,0.7,1.9c0,0.8-0.2,1.4-0.7,1.9c-0.5,0.5-1,0.8-1.7,0.8c-0.7,0-1.2-0.3-1.7-0.8
	c-0.5-0.5-0.7-1.2-0.7-1.9c0-0.7,0.2-1.4,0.7-1.9c0.5-0.5,1-0.8,1.7-0.8C101.4,475.1,102,475.4,102.5,475.9z M102,485.6v29.6h-2.4
	v-29.6H102z"/>
<path d="M111.2,467v48.1h-2.4V467H111.2z"/>
<path d="M120.2,467v48.1h-2.4V467H120.2z"/>
<path d="M154.6,515.1h-2.4v-6c-0.5,0.7-1,1.4-1.5,2c-2.8,3.2-6.3,4.9-10.3,4.9c-4,0-7.4-1.6-10.3-4.9c-2.9-3.2-4.3-7.1-4.3-11.7
	c0-4.6,1.4-8.5,4.3-11.7c2.9-3.2,6.3-4.8,10.3-4.8c4,0,7.5,1.6,10.3,4.8c0.5,0.6,1,1.3,1.5,2v-4.2h2.4V515.1z M152.2,502.1v-5.3
	c-0.4-2.7-1.5-5-3.3-7c-2.4-2.7-5.2-4-8.5-4c-3.3,0-6.2,1.3-8.5,4s-3.5,5.9-3.5,9.7c0,3.8,1.2,7,3.5,9.6s5.2,4,8.5,4
	c3.3,0,6.2-1.3,8.5-4C150.6,507.1,151.7,504.8,152.2,502.1z"/>
<path d="M182.7,508l2.5,1.1c-0.5,0.7-1,1.4-1.6,2c-2.8,3.2-6.3,4.9-10.3,4.9c-4,0-7.4-1.6-10.3-4.9s-4.3-7.1-4.3-11.7
	c0-4.6,1.4-8.5,4.3-11.7s6.3-4.8,10.3-4.8c4,0,7.5,1.6,10.3,4.8c0.6,0.7,1.1,1.3,1.6,2l-2.5,1.1c-0.3-0.4-0.5-0.7-0.8-1.1
	c-2.4-2.7-5.2-4-8.5-4c-3.3,0-6.1,1.3-8.5,4s-3.5,5.9-3.5,9.7c0,3.8,1.2,7,3.5,9.7s5.2,4,8.5,4c3.3,0,6.2-1.3,8.5-4
	C182.2,508.7,182.5,508.4,182.7,508z"/>
<path d="M203.5,482.9c4,0,7.5,1.6,10.3,4.8s4.2,7.1,4.2,11.7c0,4.5-1.4,8.4-4.2,11.7s-6.3,4.9-10.3,4.9c-4,0-7.4-1.6-10.3-4.9
	c-2.9-3.2-4.3-7.1-4.3-11.7c0-4.6,1.4-8.5,4.3-11.7C196.1,484.5,199.5,482.9,203.5,482.9z M195,489.8c-2.4,2.7-3.5,5.9-3.5,9.7
	c0,3.8,1.2,7,3.5,9.6s5.2,4,8.5,4c3.3,0,6.2-1.3,8.5-4s3.5-5.9,3.5-9.6c0-3.8-1.2-7-3.5-9.7s-5.2-4-8.5-4
	C200.2,485.8,197.4,487.1,195,489.8z"/>
<path d="M223.2,467h2.4v22.7c0.4-0.7,0.9-1.3,1.5-2c2.8-3.2,6.3-4.8,10.3-4.8s7.5,1.6,10.3,4.8s4.3,7.1,4.3,11.7
	c0,4.5-1.4,8.4-4.3,11.7s-6.3,4.9-10.3,4.9s-7.5-1.6-10.3-4.9c-0.6-0.6-1.1-1.3-1.5-2v6h-2.4V467z M225.6,496.7v5.7
	c0.4,2.6,1.5,4.8,3.3,6.8c2.4,2.7,5.2,4,8.5,4c3.3,0,6.2-1.3,8.5-4c2.4-2.7,3.5-5.9,3.5-9.6c0-3.8-1.2-7-3.5-9.7
	c-2.4-2.7-5.2-4-8.5-4c-3.3,0-6.2,1.3-8.5,4C227.2,491.8,226.1,494.1,225.6,496.7z"/>
</svg>
